<?xml version="1.0" standalone="no"?>
<!DOCTYPE svg PUBLIC "-//W3C//DTD SVG 20010904//EN"
 "http://www.w3.org/TR/2001/REC-SVG-20010904/DTD/svg10.dtd">
<svg version="1.0" xmlns="http://www.w3.org/2000/svg"
 width="256.000000pt" height="256.000000pt" viewBox="0 0 256.000000 256.000000"
 preserveAspectRatio="xMidYMid meet">
<metadata>
Created by potrace 1.14, written by Peter Selinger 2001-2017
</metadata>
<g transform="translate(0.000000,256.000000) scale(0.100000,-0.100000)"
fill="#000000" stroke="none">
<path d="M651 1904 c-124 -33 -238 -130 -292 -249 l-29 -65 -86 0 c-96 0 -118
-8 -131 -47 -24 -72 27 -113 139 -113 l66 0 21 -68 c30 -98 88 -183 164 -238
79 -58 121 -73 218 -81 208 -16 381 100 463 310 13 31 20 37 44 37 32 0 50
-17 107 -105 54 -84 144 -171 208 -200 75 -35 236 -52 325 -36 90 17 192 72
248 134 54 61 82 111 104 192 l17 60 92 5 c104 6 121 17 121 77 0 57 -29 73
-135 73 l-91 0 -29 68 c-76 175 -275 285 -461 254 -126 -21 -239 -92 -304
-193 -58 -89 -93 -115 -171 -123 l-66 -6 -37 75 c-96 194 -305 293 -505 239z
m254 -98 c75 -34 139 -97 177 -174 27 -55 32 -76 32 -141 1 -92 -14 -144 -57
-208 -99 -144 -287 -197 -441 -125 -82 38 -140 97 -178 179 -26 55 -31 76 -30
141 1 163 88 286 241 340 84 29 176 25 256 -12z m1028 4 c71 -27 153 -104 186
-175 81 -173 10 -384 -157 -469 -182 -92 -394 -21 -484 162 -30 60 -33 75 -33
152 0 70 5 95 27 141 84 182 274 260 461 189z"/>
<path d="M771 1675 c-85 -27 -141 -106 -141 -200 0 -121 85 -205 205 -205 96
0 175 57 201 147 47 162 -104 310 -265 258z"/>
<path d="M1674 1680 c-79 -18 -144 -89 -159 -172 -11 -59 18 -139 65 -182 51
-46 77 -56 146 -56 120 0 204 85 204 205 0 95 -57 175 -144 200 -54 16 -65 17
-112 5z"/>
<path d="M720 938 c1 -52 32 -167 65 -235 60 -128 166 -220 307 -271 100 -35
259 -37 363 -5 119 37 235 126 299 230 33 54 72 172 81 246 l6 57 -160 0 -161
0 0 -35 c0 -25 -8 -44 -25 -60 -24 -25 -26 -25 -214 -25 l-189 0 -26 31 c-15
18 -26 43 -26 60 l0 29 -160 0 c-159 0 -160 0 -160 -22z"/>
</g>
</svg>
